<svg width="30" height="24" viewBox="0 0 30 24" fill="none" xmlns="http://www.w3.org/2000/svg">
<path d="M27 0H3C1.35 0 0 1.35 0 3V7.5H3V3H27V7.5H30V3C30 1.35 28.65 0 27 0Z" fill="#C4C4C4"/>
<path d="M27 21H3V16.5H0V21C0 22.65 1.35 24 3 24H27C28.65 24 30 22.65 30 21V16.5H27V21Z" fill="#C4C4C4"/>
<path d="M19.335 5.32506C18.825 4.30506 17.16 4.30506 16.65 5.32506L12 14.6401L10.335 11.3251C10.08 10.8151 9.57 10.5001 9 10.5001H0V13.5001H8.07L10.65 18.6751C10.92 19.1851 11.43 19.5001 12 19.5001C12.57 19.5001 13.08 19.1851 13.335 18.6751L18 9.36006L19.665 12.6751C19.92 13.1851 20.43 13.5001 21 13.5001H30V10.5001H21.93L19.335 5.32506Z" fill="#C4C4C4"/>
</svg>
