<svg width="322" height="84" viewBox="0 0 322 84" fill="none" xmlns="http://www.w3.org/2000/svg">
<path d="M149.207 57.28C149.047 57.12 148.887 57.12 148.727 57.28C147.287 58.24 145.847 59.36 144.407 60.32C142.967 61.28 141.527 62.24 139.927 63.04C139.127 63.52 138.487 63.84 137.687 64.16C137.207 64.32 136.887 64.48 136.567 64.48C136.087 64.64 135.767 64.64 135.607 64.48C135.607 64.48 135.447 64.48 135.447 64.32C135.447 64.32 135.287 64.16 135.287 64C135.127 63.68 134.967 63.36 134.967 62.88C134.807 62.08 134.807 61.28 134.807 60.32C134.807 59.52 134.807 58.72 134.807 57.76C134.807 57.28 134.807 56.8 134.807 56.32C134.807 56 134.807 55.52 134.647 54.88C134.647 54.88 134.647 54.72 134.647 54.56C134.647 54.4 134.487 54.24 134.487 54.08C134.327 53.92 134.327 53.92 134.327 53.76C134.167 53.6 134.007 53.44 133.847 53.28C133.527 53.28 133.207 53.12 133.047 53.28C132.887 53.28 132.727 53.28 132.567 53.44C132.407 53.44 132.407 53.44 132.407 53.6H132.247C132.087 53.76 131.927 53.76 131.927 53.92C131.607 54.08 131.447 54.24 131.287 54.4C130.647 55.2 130.167 56 129.687 56.8C128.727 58.4 128.087 60 127.447 61.76C127.287 62.24 126.967 62.72 126.807 63.2C126.807 62.88 126.807 62.72 126.807 62.4C126.967 61.6 126.967 60.8 127.127 60C127.127 59.2 127.287 58.4 127.287 57.76V57.6C127.287 56.8 126.807 56.16 126.007 56.16C125.207 56.16 124.727 56.8 124.727 57.44C124.567 58.4 124.567 59.2 124.727 60C124.727 60.8 124.727 61.6 124.727 62.4C124.727 63.2 124.727 64.16 124.887 64.96C124.887 65.28 124.887 65.76 124.887 66.24C125.047 66.24 125.047 66.24 125.047 66.4C125.047 66.56 125.047 66.72 125.047 66.88C125.047 67.04 125.207 67.2 125.207 67.36C125.367 67.52 125.367 67.52 125.367 67.52V67.68H125.527C125.527 67.84 125.527 67.84 125.687 67.84C125.687 67.84 125.687 68 125.847 68C126.167 68.16 126.647 68 126.967 67.68C126.967 67.52 126.967 67.36 126.967 67.2C126.967 67.04 126.967 66.88 126.807 66.72V66.56C126.807 66.4 126.807 66.4 126.967 66.24V65.92C127.127 65.44 127.287 65.12 127.447 64.64C127.927 63.84 128.247 63.04 128.567 62.24C129.367 60.64 130.327 59.2 131.287 57.76C131.767 57.12 132.247 56.32 132.727 55.84C132.727 55.68 132.887 55.68 132.887 55.68C132.887 56 132.887 56.16 132.887 56.48C132.887 56.96 132.887 57.28 132.887 57.76C133.047 58.72 133.047 59.52 133.047 60.48C133.047 61.28 133.207 62.24 133.367 63.2C133.367 63.68 133.527 64.16 133.687 64.64C133.847 64.96 134.007 65.28 134.167 65.44C134.487 65.76 134.807 65.92 135.127 66.08C135.447 66.24 135.767 66.24 136.087 66.24C136.247 66.24 136.567 66.08 136.887 66.08C137.367 65.92 137.847 65.76 138.167 65.6C139.127 65.12 139.927 64.8 140.567 64.32C142.167 63.36 143.607 62.24 145.047 61.12C146.487 60 147.767 58.88 149.207 57.76C149.207 57.6 149.367 57.44 149.207 57.28ZM165.143 57.28C164.983 57.12 164.823 57.12 164.823 57.28C162.903 58.88 161.143 60.48 159.223 61.92C158.263 62.72 157.303 63.36 156.343 64C155.383 64.8 154.263 65.44 153.303 65.92C152.823 66.24 152.183 66.4 151.703 66.56C151.383 66.72 151.223 66.72 150.903 66.88C150.743 66.88 150.583 66.88 150.583 66.88H150.423H150.263C150.103 66.88 150.103 66.88 150.103 66.72C150.103 66.72 149.943 66.72 149.943 66.56C149.943 66.4 149.783 66.24 149.783 65.92C149.623 65.44 149.463 64.96 149.463 64.32C149.463 63.2 149.463 62.08 149.623 60.96C149.623 60.32 149.623 59.68 149.783 59.04C149.783 58.56 149.943 57.92 149.943 57.44C149.943 57.28 149.943 57.28 149.943 57.28C150.103 56.48 149.463 55.84 148.663 55.84C148.023 55.84 147.383 56.32 147.383 57.12C147.383 57.76 147.383 58.4 147.383 59.04C147.383 59.52 147.383 60.16 147.383 60.8C147.383 62.08 147.543 63.36 147.703 64.64C147.863 65.28 148.023 65.92 148.183 66.56C148.343 66.88 148.503 67.2 148.823 67.52C148.983 67.68 149.143 67.84 149.303 68C149.623 68.16 149.783 68.16 150.103 68.16H150.263H150.423H150.583C150.903 68.16 151.063 68.16 151.223 68.16C151.543 68 151.863 67.84 152.183 67.84C152.663 67.52 153.303 67.2 153.783 66.88C154.903 66.4 155.863 65.6 156.983 64.96C157.943 64.16 158.903 63.36 159.703 62.56C161.623 60.96 163.383 59.36 165.143 57.6C165.303 57.6 165.303 57.44 165.143 57.28ZM147.543 52.48C147.543 52.64 147.543 52.96 147.543 53.12C147.703 53.6 148.023 53.92 148.503 53.92C149.143 54.08 149.623 53.6 149.623 53.12V52.96C149.623 52.8 149.623 52.64 149.623 52.48C149.783 52.32 149.783 52 149.783 51.84C149.783 51.84 149.783 51.68 149.943 51.52C150.423 51.04 150.423 50.08 149.943 49.6C149.463 49.12 148.503 49.12 148.023 49.6C147.863 49.76 147.863 49.92 147.703 50.08C147.703 50.08 147.703 50.24 147.703 50.4C147.543 50.4 147.543 50.56 147.543 50.56C147.543 50.72 147.543 50.72 147.543 50.88C147.383 51.2 147.383 51.52 147.383 51.68C147.383 52 147.543 52.16 147.543 52.48ZM185.237 57.28C185.237 57.12 184.917 57.12 184.917 57.28C182.357 59.2 179.797 61.12 177.077 62.72C175.797 63.68 174.357 64.32 172.917 65.12C172.277 65.44 171.637 65.76 170.837 65.92C170.197 66.24 169.397 66.4 168.757 66.56C168.597 66.56 168.277 66.56 168.117 66.56C167.957 66.56 167.957 66.56 167.797 66.4C167.477 66.4 167.157 66.24 166.997 66.08C166.517 65.76 166.197 65.28 166.037 64.48C165.717 63.2 165.717 61.76 166.037 60.32C166.197 59.68 166.357 59.04 166.837 58.56C166.997 58.24 167.157 57.92 167.317 57.76C167.637 57.44 167.797 57.28 167.957 57.12C168.277 56.96 168.437 56.96 168.437 56.96C168.437 56.96 168.437 56.96 168.437 57.12C168.597 57.12 168.597 57.12 168.597 57.12C168.757 57.28 168.917 57.6 169.077 57.76C169.077 57.92 169.077 58.08 169.237 58.24C169.237 58.24 169.237 58.24 169.237 58.4C169.237 59.04 169.717 59.68 170.517 59.68C171.317 59.68 171.797 59.04 171.797 58.4C171.797 58.08 171.797 57.92 171.797 57.76C171.797 57.6 171.797 57.6 171.637 57.44C171.637 57.12 171.477 56.96 171.317 56.64C171.157 56.16 170.837 55.68 170.357 55.36C170.197 55.04 169.877 54.88 169.557 54.72C169.237 54.56 168.917 54.56 168.437 54.56C168.117 54.56 167.797 54.56 167.477 54.72C167.157 54.88 166.837 55.04 166.677 55.2C166.197 55.52 165.877 55.84 165.557 56.16C165.237 56.48 164.917 56.96 164.757 57.28C164.277 58.24 164.117 59.04 163.957 60C163.797 60.8 163.637 61.76 163.797 62.56C163.797 63.52 163.957 64.32 164.277 65.12C164.437 65.6 164.757 66.08 164.917 66.4C165.237 66.88 165.557 67.2 166.037 67.52C166.517 67.84 166.997 68 167.477 68.16C167.797 68.16 167.957 68.16 168.277 68.16C168.437 68.16 168.757 68 168.917 68C169.717 67.84 170.517 67.68 171.317 67.36C172.117 67.04 172.917 66.56 173.557 66.24C174.997 65.44 176.437 64.64 177.717 63.68C178.997 62.72 180.277 61.76 181.557 60.8C182.837 59.84 184.117 58.72 185.237 57.76C185.397 57.6 185.397 57.44 185.237 57.28ZM203.313 57.28C201.553 58.08 199.953 58.72 198.193 59.2C196.433 59.68 194.513 59.84 192.753 59.84C191.953 59.84 191.153 59.68 190.513 59.52C190.353 59.2 190.353 58.88 190.193 58.56C190.033 58.08 189.873 57.6 189.713 57.12C189.393 56.64 189.073 56.16 188.753 55.68C188.433 55.52 188.273 55.36 187.953 55.2C187.633 55.04 187.153 55.04 186.833 55.04C186.673 55.2 186.513 55.2 186.353 55.2C186.193 55.36 186.033 55.36 185.873 55.52C185.713 55.68 185.553 55.84 185.393 56.16C185.073 56.16 184.753 56.32 184.593 56.64C183.953 57.6 183.473 58.56 183.313 59.52C182.993 60.64 182.833 61.6 182.993 62.72C182.993 63.2 182.993 63.84 183.153 64.32C183.313 64.96 183.633 65.44 184.113 65.92C184.433 66.56 185.073 66.88 185.713 67.04C186.033 67.2 186.353 67.2 186.673 67.2C186.833 67.2 186.993 67.2 187.153 67.2C187.313 67.2 187.473 67.2 187.633 67.2C188.273 67.04 188.913 66.56 189.393 66.08C189.873 65.6 190.033 65.12 190.353 64.64C190.673 63.52 190.673 62.56 190.673 61.44C190.673 61.28 190.673 60.96 190.673 60.64C191.313 60.8 192.113 60.8 192.753 60.8C194.673 60.8 196.593 60.48 198.353 59.84C200.113 59.36 201.873 58.56 203.473 57.76C203.633 57.6 203.633 57.44 203.633 57.44C203.633 57.28 203.473 57.12 203.313 57.28ZM186.833 56.64L186.993 56.48C187.153 56.48 187.153 56.64 187.313 56.64C187.473 56.64 187.473 56.8 187.633 56.8C187.793 57.12 188.113 57.44 188.273 57.76C188.433 58.08 188.433 58.56 188.593 58.88C188.273 58.72 188.113 58.56 187.793 58.4C187.473 58.08 187.153 57.92 186.993 57.6C187.153 57.28 186.993 56.96 186.833 56.64ZM188.433 63.84C188.273 64.16 188.113 64.48 187.953 64.64C187.633 64.96 187.473 64.96 187.153 65.12C187.153 65.12 187.153 65.12 186.993 65.12H186.833C186.673 65.12 186.513 64.96 186.353 64.96C186.193 64.96 186.033 64.8 185.873 64.64C185.553 64.16 185.393 63.36 185.393 62.56C185.393 61.92 185.393 60.96 185.713 60.32C185.873 59.68 186.033 59.2 186.353 58.88C186.513 59.04 186.833 59.2 187.153 59.36C187.633 59.84 188.273 60 188.753 60.32C188.913 60.64 188.913 61.12 188.913 61.44C188.913 62.4 188.753 63.2 188.433 63.84ZM222.234 57.44C221.114 58.08 219.994 58.56 218.874 59.04C218.394 59.2 217.754 59.52 217.114 59.68C216.634 59.84 215.994 59.84 215.354 59.84C214.874 59.84 214.234 59.84 213.914 59.52C213.434 59.36 213.114 58.88 212.794 58.4C212.634 57.92 212.474 57.44 212.314 56.8L211.994 55.84C211.994 55.52 211.834 55.2 211.674 54.88C211.514 54.72 211.514 54.4 211.354 54.24C211.194 54.08 211.034 54.08 210.874 53.92C210.714 53.92 210.554 53.76 210.394 53.76C210.074 53.76 209.754 53.76 209.594 53.76C209.274 53.92 209.114 54.08 208.794 54.08C208.474 54.4 208.154 54.72 207.994 54.88C207.674 55.2 207.514 55.52 207.354 55.68C206.554 56.96 205.914 58.08 205.434 59.2C204.954 60.16 204.474 61.12 204.154 62.08C204.154 61.44 204.154 60.8 204.314 60C204.314 59.2 204.474 58.4 204.474 57.76V57.6C204.474 56.8 203.994 56.16 203.194 56.16C202.394 56.16 201.914 56.8 201.914 57.44C201.754 58.4 201.754 59.2 201.914 60C201.914 60.8 201.914 61.6 201.914 62.4C201.914 63.2 201.914 64.16 202.074 64.96C202.074 65.28 202.074 65.76 202.074 66.24C202.234 66.4 202.234 66.56 202.234 66.88C202.394 67.04 202.394 67.2 202.394 67.36C202.554 67.52 202.554 67.52 202.554 67.52V67.68H202.714C202.714 67.84 202.714 67.84 202.874 67.84C202.874 67.84 202.874 68 203.034 68C203.034 68 203.194 68.16 203.354 68.16C203.994 68.32 204.794 68 204.954 67.2C205.274 66.08 205.754 64.8 206.074 63.68C206.394 62.4 206.874 61.28 207.354 60.16C207.834 58.88 208.314 57.76 208.954 56.8C209.114 56.64 209.274 56.32 209.434 56.16C209.594 55.84 209.754 55.68 209.914 55.52H210.074C210.074 55.52 210.234 55.52 210.234 55.68C210.234 55.84 210.394 56 210.554 56.32L210.874 57.28C211.034 57.92 211.194 58.56 211.674 59.2C211.994 59.84 212.634 60.32 213.274 60.64C214.074 60.96 214.714 61.12 215.514 60.96C216.154 60.96 216.794 60.8 217.434 60.64C218.074 60.32 218.714 60.16 219.194 59.84C220.474 59.36 221.594 58.56 222.554 57.92C222.714 57.92 222.874 57.6 222.714 57.44C222.554 57.44 222.394 57.28 222.234 57.44ZM245.457 57.28C245.297 57.12 245.137 57.12 244.977 57.28C243.537 58.24 242.097 59.36 240.657 60.32C239.217 61.28 237.777 62.24 236.177 63.04C235.377 63.52 234.737 63.84 233.937 64.16C233.457 64.32 233.137 64.48 232.817 64.48C232.337 64.64 232.017 64.64 231.857 64.48C231.857 64.48 231.697 64.48 231.697 64.32C231.697 64.32 231.537 64.16 231.537 64C231.377 63.68 231.217 63.36 231.217 62.88C231.057 62.08 231.057 61.28 231.057 60.32C231.057 59.52 231.057 58.72 231.057 57.76C231.057 57.28 231.057 56.8 231.057 56.32C231.057 56 231.057 55.52 230.897 54.88C230.897 54.88 230.897 54.72 230.897 54.56C230.897 54.4 230.737 54.24 230.737 54.08C230.577 53.92 230.577 53.92 230.577 53.76C230.417 53.6 230.257 53.44 230.097 53.28C229.777 53.28 229.457 53.12 229.297 53.28C229.137 53.28 228.977 53.28 228.817 53.44C228.657 53.44 228.657 53.44 228.657 53.6H228.497C228.337 53.76 228.177 53.76 228.177 53.92C227.857 54.08 227.697 54.24 227.537 54.4C226.897 55.2 226.417 56 225.937 56.8C224.977 58.4 224.337 60 223.697 61.76C223.537 62.24 223.217 62.72 223.057 63.2C223.057 62.88 223.057 62.72 223.057 62.4C223.217 61.6 223.217 60.8 223.377 60C223.377 59.2 223.537 58.4 223.537 57.76V57.6C223.537 56.8 223.057 56.16 222.257 56.16C221.457 56.16 220.977 56.8 220.977 57.44C220.817 58.4 220.817 59.2 220.977 60C220.977 60.8 220.977 61.6 220.977 62.4C220.977 63.2 220.977 64.16 221.137 64.96C221.137 65.28 221.137 65.76 221.137 66.24C221.297 66.24 221.297 66.24 221.297 66.4C221.297 66.56 221.297 66.72 221.297 66.88C221.297 67.04 221.457 67.2 221.457 67.36C221.617 67.52 221.617 67.52 221.617 67.52V67.68H221.777C221.777 67.84 221.777 67.84 221.937 67.84C221.937 67.84 221.937 68 222.097 68C222.417 68.16 222.897 68 223.217 67.68C223.217 67.52 223.217 67.36 223.217 67.2C223.217 67.04 223.217 66.88 223.057 66.72V66.56C223.057 66.4 223.057 66.4 223.217 66.24V65.92C223.377 65.44 223.537 65.12 223.697 64.64C224.177 63.84 224.497 63.04 224.817 62.24C225.617 60.64 226.577 59.2 227.537 57.76C228.017 57.12 228.497 56.32 228.977 55.84C228.977 55.68 229.137 55.68 229.137 55.68C229.137 56 229.137 56.16 229.137 56.48C229.137 56.96 229.137 57.28 229.137 57.76C229.297 58.72 229.297 59.52 229.297 60.48C229.297 61.28 229.457 62.24 229.617 63.2C229.617 63.68 229.777 64.16 229.937 64.64C230.097 64.96 230.257 65.28 230.417 65.44C230.737 65.76 231.057 65.92 231.377 66.08C231.697 66.24 232.017 66.24 232.337 66.24C232.497 66.24 232.817 66.08 233.137 66.08C233.617 65.92 234.097 65.76 234.417 65.6C235.377 65.12 236.177 64.8 236.817 64.32C238.417 63.36 239.857 62.24 241.297 61.12C242.737 60 244.017 58.88 245.457 57.76C245.457 57.6 245.617 57.44 245.457 57.28Z" fill="#FF4D25"/>
<path d="M121.183 21.48C121.103 21.48 120.943 21.56 120.943 21.72C121.023 24.04 121.023 26.44 121.023 28.76C121.023 31.16 120.943 33.56 120.783 35.88C120.623 40.6 120.223 45.32 119.583 49.96C119.263 52.36 118.863 54.68 118.383 56.92C117.903 59.24 117.343 61.56 116.623 63.8C116.303 64.92 115.823 65.96 115.423 67.08C114.943 68.12 114.383 69.16 113.823 70.2C113.183 71.16 112.543 72.12 111.743 72.92C110.943 73.72 110.063 74.44 109.023 75C108.063 75.48 106.943 75.72 105.823 75.72C105.263 75.72 104.703 75.72 104.143 75.56C103.583 75.48 103.023 75.4 102.543 75.16C102.303 75.08 101.983 74.92 101.743 74.84L101.423 74.6C101.343 74.6 101.263 74.6 101.183 74.52L101.023 74.44C100.543 74.12 100.063 73.8 99.6628 73.4L99.3428 73.16C99.2628 73 99.1828 72.92 99.0228 72.84C98.8628 72.6 98.6228 72.44 98.4628 72.2C98.1428 71.8 97.7428 71.32 97.4228 70.84C97.1028 70.36 96.8628 69.88 96.5428 69.32C96.3828 69.08 96.3028 68.84 96.1428 68.6C96.0628 68.36 95.9028 68.04 95.8228 67.8C95.3428 66.76 94.9428 65.64 94.6228 64.52C93.9028 62.28 93.4228 60.04 93.0228 57.72C92.7028 55.4 92.4628 53 92.3028 50.68C92.0628 48.36 91.9828 45.96 91.9828 43.64C91.9828 38.92 92.1428 34.2 92.4628 29.48C92.5428 29.16 92.2228 28.84 91.8228 28.76C91.5028 28.76 91.1828 29.08 91.1828 29.4C90.8628 34.12 90.7028 38.92 90.7828 43.64C90.7828 46.04 90.9428 48.44 91.1028 50.76C91.2628 53.16 91.5828 55.48 91.9028 57.88C92.3028 60.2 92.8628 62.6 93.5828 64.84C93.9028 65.96 94.3828 67.08 94.8628 68.2C94.9428 68.52 95.1028 68.76 95.2628 69C95.3428 69.32 95.5028 69.56 95.6628 69.88C95.9828 70.36 96.2228 70.92 96.6228 71.4C96.9428 71.88 97.3428 72.36 97.7428 72.84C97.9028 73.08 98.1428 73.32 98.3828 73.56C98.4628 73.64 98.5428 73.72 98.7028 73.88L99.0228 74.12C99.5028 74.52 99.9828 74.92 100.543 75.24L100.703 75.4C100.783 75.4 100.863 75.48 100.943 75.48L101.343 75.72C101.663 75.8 101.903 75.96 102.223 76.04C102.783 76.28 103.423 76.44 103.983 76.52C104.623 76.6 105.263 76.68 105.823 76.68C107.103 76.68 108.383 76.36 109.423 75.8C110.543 75.24 111.583 74.44 112.383 73.56C113.183 72.6 113.903 71.64 114.543 70.6C115.183 69.56 115.663 68.52 116.143 67.4C116.623 66.28 117.023 65.16 117.423 64.04C118.143 61.72 118.703 59.4 119.183 57.08C119.583 54.76 119.983 52.44 120.303 50.04C120.863 45.4 121.183 40.6 121.423 35.88C121.503 33.56 121.503 31.16 121.503 28.84C121.583 26.44 121.503 24.04 121.423 21.72C121.423 21.56 121.343 21.48 121.183 21.48Z" fill="#FF4D25"/>
</svg>
